<svg width="32" height="32" viewBox="0 0 32 32" fill="none" xmlns="http://www.w3.org/2000/svg">
<path d="M29 7.94689C28.0438 8.35939 27.0031 8.65626 25.9313 8.77189C27.0441 8.11075 27.8775 7.06626 28.275 5.83439C27.2307 6.4556 26.0867 6.89121 24.8938 7.12189C24.3952 6.58885 23.7921 6.1642 23.1222 5.87441C22.4523 5.58462 21.7299 5.4359 21 5.43751C18.0469 5.43751 15.6719 7.83126 15.6719 10.7688C15.6719 11.1813 15.7219 11.5938 15.8031 11.9906C11.3813 11.7594 7.43751 9.64689 4.81564 6.41251C4.3379 7.2285 4.08755 8.15759 4.09064 9.10314C4.09064 10.9531 5.03126 12.5844 6.46564 13.5438C5.62034 13.5105 4.79483 13.2781 4.05626 12.8656V12.9313C4.05626 15.5219 5.88751 17.6688 8.32814 18.1625C7.86988 18.2815 7.39847 18.3424 6.92501 18.3438C6.57814 18.3438 6.25001 18.3094 5.91876 18.2625C6.59376 20.375 8.55939 21.9094 10.9 21.9594C9.06876 23.3938 6.77501 24.2375 4.28439 24.2375C3.83751 24.2375 3.42501 24.2219 2.99689 24.1719C5.35939 25.6875 8.16251 26.5625 11.1813 26.5625C20.9813 26.5625 26.3438 18.4438 26.3438 11.3969C26.3438 11.1656 26.3438 10.9344 26.3281 10.7031C27.3656 9.94376 28.275 9.00314 29 7.94689Z" fill="#EDF2F4"/>
</svg>
