<svg width="32" height="32" viewBox="0 0 32 32" fill="none" xmlns="http://www.w3.org/2000/svg">
<path d="M22.2969 18.7469C21.9562 18.5719 20.2594 17.7406 19.9437 17.6281C19.6281 17.5094 19.3969 17.4531 19.1687 17.8031C18.9375 18.15 18.2812 18.9219 18.075 19.1563C17.875 19.3875 17.6719 19.4156 17.3312 19.2438C15.3062 18.2313 13.9781 17.4375 12.6437 15.1469C12.2906 14.5375 12.9969 14.5813 13.6562 13.2656C13.7687 13.0344 13.7125 12.8375 13.625 12.6625C13.5375 12.4875 12.85 10.7937 12.5625 10.1031C12.2844 9.43125 11.9969 9.525 11.7875 9.5125C11.5875 9.5 11.3594 9.5 11.1281 9.5C10.8969 9.5 10.525 9.5875 10.2094 9.92813C9.89374 10.275 9.00311 11.1094 9.00311 12.8031C9.00311 14.4969 10.2375 16.1375 10.4062 16.3688C10.5812 16.6 12.8344 20.075 16.2937 21.5719C18.4812 22.5156 19.3375 22.5969 20.4312 22.4344C21.0969 22.3344 22.4687 21.6031 22.7531 20.7938C23.0375 19.9875 23.0375 19.2969 22.9531 19.1531C22.8687 19 22.6375 18.9125 22.2969 18.7469Z" fill="#EDF2F4"/>
<path d="M28.9125 10.575C28.2062 8.89687 27.1937 7.39063 25.9031 6.09688C24.6125 4.80625 23.1062 3.79063 21.425 3.0875C19.7062 2.36563 17.8812 2 16 2H15.9375C14.0437 2.00938 12.2094 2.38438 10.4844 3.12188C8.81874 3.83438 7.32499 4.84687 6.04687 6.1375C4.76874 7.42812 3.76562 8.92813 3.07187 10.6C2.35312 12.3313 1.99062 14.1719 1.99999 16.0656C2.00937 18.2344 2.52812 20.3875 3.49999 22.3125V27.0625C3.49999 27.8563 4.14374 28.5 4.93749 28.5H9.69062C11.6156 29.4719 13.7687 29.9906 15.9375 30H16.0031C17.875 30 19.6906 29.6375 21.4 28.9281C23.0719 28.2313 24.575 27.2313 25.8625 25.9531C27.1531 24.675 28.1687 23.1812 28.8781 21.5156C29.6156 19.7906 29.9906 17.9563 30 16.0625C30.0094 14.1594 29.6406 12.3125 28.9125 10.575ZM24.1906 24.2625C22 26.4313 19.0937 27.625 16 27.625H15.9469C14.0625 27.6156 12.1906 27.1469 10.5375 26.2656L10.275 26.125H5.87499V21.725L5.73437 21.4625C4.85312 19.8094 4.38437 17.9375 4.37499 16.0531C4.36249 12.9375 5.55312 10.0125 7.73749 7.80937C9.91874 5.60625 12.8344 4.3875 15.95 4.375H16.0031C17.5656 4.375 19.0812 4.67812 20.5094 5.27812C21.9031 5.8625 23.1531 6.70312 24.2281 7.77812C25.3 8.85 26.1437 10.1031 26.7281 11.4969C27.3344 12.9406 27.6375 14.4719 27.6312 16.0531C27.6125 19.1656 26.3906 22.0813 24.1906 24.2625Z" fill="#EDF2F4"/>
</svg>
