<svg width="280" height="182" viewBox="0 0 280 182" fill="none" xmlns="http://www.w3.org/2000/svg">
<g clip-path="url(#clip0_36_2)">
<rect width="280" height="182" fill="white"/>
<rect width="280" height="182" fill="#034C8C"/>
<path d="M196.274 81.1826C171.323 79.3292 138.331 37.9634 138.331 23.0463C138.331 12.0259 187.253 5.0643 193.221 4.07785C201.951 2.63471 241.051 21.6697 244.403 26.9559C249.258 34.61 263.255 112.199 260.689 122.45C257.352 135.778 234.151 156.991 227.01 155.13C206.426 149.763 221.226 83.036 196.274 81.1826Z" fill="#F28705"/>
<path d="M99.9437 88.8569C116.011 88.4225 99.9437 35.7885 96.2359 18.8472C92.7686 10.2371 86.0566 5.76509 69.0452 4.07785C56.5235 2.8359 31.3092 26.4562 29.4951 34.1233C25.2005 52.2738 31.3127 96.2415 31.3127 102.975C31.3127 109.708 44.1083 115.717 51.3785 99.9339C58.6488 84.1509 83.8765 89.2913 99.9437 88.8569Z" fill="#F28705"/>
<path d="M62.502 122.45C36.8348 134.559 25.7182 167.844 26.0054 171.102C26.2926 174.359 34.1681 178.092 36.3873 178.831C40.4145 180.173 53.8439 178.095 65.0254 178.384C81.272 178.804 87.8464 182.409 106.487 181.962C125.127 181.514 140.96 178.326 160.432 168.785C175.96 161.177 193.491 150.038 196.274 142.794C199.267 135.006 186.968 102.975 186.532 90.884C186.096 78.7934 170.465 76.5491 146.982 70.3228C123.499 64.0965 130.188 83.9337 125.099 94.142C120.01 104.35 81.3564 113.555 62.502 122.45Z" fill="#F28705"/>
<path d="M263.938 46.3703C273.058 70.8195 252.24 87.9921 195.127 88.356C154.574 88.6143 145.129 67.5282 134.097 48.4744C129.593 40.6944 109.538 34.804 117.565 27.7423C125.593 20.6806 169.249 14.3881 169.249 14.3881C169.249 14.3881 212.491 3.60095 228.289 8.09561C244.088 12.5903 256.643 26.8109 263.938 46.3703Z" fill="#11B4D9"/>
<path d="M86.1535 130.342C80.4423 115.861 33.1781 91.2466 26.462 94.9049C19.571 96.1907 18.7979 157.265 26.462 172.691C36.0421 191.974 70.0331 175.82 88.7328 172.691C107.432 169.562 91.8647 144.822 86.1535 130.342Z" fill="#11B4D9"/>
<path d="M91.4042 68.3455C109.275 69.6552 114.894 90.3934 129.725 111.423C131.321 114.406 131.125 121.814 117.565 127.577C100.616 134.78 78.3236 88.356 65.7036 78.6782C53.0837 69.0004 73.5335 67.0357 91.4042 68.3455Z" fill="#11B4D9"/>
<path d="M201.207 106.256C190.706 101.09 189.877 109.385 172.927 117.244C169.519 117.244 167.216 127.577 176.336 134.489C185.455 141.402 197.707 133.471 212.998 127.577C228.289 121.683 211.708 111.423 201.207 106.256Z" fill="#11B4D9"/>
</g>
<defs>
<clipPath id="clip0_36_2">
<rect width="280" height="182" fill="white"/>
</clipPath>
</defs>
</svg>
